<mxfile host="app.diagrams.net" agent="Mozilla/5.0 (Windows NT 10.0; Win64; x64) AppleWebKit/537.36 (KHTML, like Gecko) Chrome/135.0.0.0 Safari/537.36" version="26.2.13">
  <diagram name="第 1 页" id="OCp1mkhaL8BktXrwJ6vE">
    <mxGraphModel dx="2276" dy="766" grid="1" gridSize="10" guides="1" tooltips="1" connect="1" arrows="1" fold="1" page="1" pageScale="1" pageWidth="850" pageHeight="1100" math="0" shadow="0">
      <root>
        <mxCell id="0" />
        <mxCell id="1" parent="0" />
        <mxCell id="ZF7ugMqVSIhXpT3id4Wy-128" value="" style="rounded=0;whiteSpace=wrap;html=1;" parent="1" vertex="1">
          <mxGeometry x="140" y="410" width="220" height="340" as="geometry" />
        </mxCell>
        <mxCell id="ZF7ugMqVSIhXpT3id4Wy-59" value="&lt;font style=&quot;font-size: 18px;&quot;&gt;Shifting Shared Wrapper Cell Model&lt;/font&gt;" style="text;html=1;align=center;verticalAlign=middle;whiteSpace=wrap;rounded=0;" parent="1" vertex="1">
          <mxGeometry x="60" y="780" width="380" height="30" as="geometry" />
        </mxCell>
        <mxCell id="ZF7ugMqVSIhXpT3id4Wy-82" value="" style="group" parent="1" vertex="1" connectable="0">
          <mxGeometry x="210" y="330" width="240" height="230" as="geometry" />
        </mxCell>
        <mxCell id="ZF7ugMqVSIhXpT3id4Wy-101" value="" style="group" parent="ZF7ugMqVSIhXpT3id4Wy-82" vertex="1" connectable="0">
          <mxGeometry x="-25" y="80" width="120" height="140" as="geometry" />
        </mxCell>
        <mxCell id="ZF7ugMqVSIhXpT3id4Wy-76" value="Mux" style="shadow=0;dashed=0;align=center;html=1;strokeWidth=1;shape=mxgraph.electrical.abstract.mux2;whiteSpace=wrap;direction=east;flipH=0;flipV=0;" parent="ZF7ugMqVSIhXpT3id4Wy-101" vertex="1">
          <mxGeometry x="20" y="20" width="80" height="120" as="geometry" />
        </mxCell>
        <mxCell id="ZF7ugMqVSIhXpT3id4Wy-78" value="&lt;font style=&quot;color: rgb(51, 51, 255);&quot;&gt;Y&lt;/font&gt;" style="text;html=1;align=center;verticalAlign=middle;whiteSpace=wrap;rounded=0;" parent="ZF7ugMqVSIhXpT3id4Wy-101" vertex="1">
          <mxGeometry x="90" y="50" width="30" height="20" as="geometry" />
        </mxCell>
        <mxCell id="ZF7ugMqVSIhXpT3id4Wy-79" value="&lt;font style=&quot;color: rgb(51, 51, 255);&quot;&gt;A1&lt;/font&gt;" style="text;html=1;align=center;verticalAlign=middle;whiteSpace=wrap;rounded=0;" parent="ZF7ugMqVSIhXpT3id4Wy-101" vertex="1">
          <mxGeometry y="110" width="30" height="20" as="geometry" />
        </mxCell>
        <mxCell id="ZF7ugMqVSIhXpT3id4Wy-80" value="&lt;font style=&quot;color: rgb(51, 51, 255);&quot;&gt;A0&lt;/font&gt;" style="text;html=1;align=center;verticalAlign=middle;whiteSpace=wrap;rounded=0;" parent="ZF7ugMqVSIhXpT3id4Wy-101" vertex="1">
          <mxGeometry y="30" width="30" height="20" as="geometry" />
        </mxCell>
        <mxCell id="ZF7ugMqVSIhXpT3id4Wy-81" value="&lt;font style=&quot;color: rgb(255, 0, 0);&quot;&gt;I2&lt;/font&gt;" style="text;html=1;align=center;verticalAlign=middle;whiteSpace=wrap;rounded=0;" parent="ZF7ugMqVSIhXpT3id4Wy-101" vertex="1">
          <mxGeometry x="45" width="30" height="20" as="geometry" />
        </mxCell>
        <mxCell id="ZF7ugMqVSIhXpT3id4Wy-119" value="OSI" style="text;html=1;align=center;verticalAlign=middle;whiteSpace=wrap;rounded=0;" parent="ZF7ugMqVSIhXpT3id4Wy-82" vertex="1">
          <mxGeometry x="160" y="125" width="20" height="30" as="geometry" />
        </mxCell>
        <mxCell id="ZF7ugMqVSIhXpT3id4Wy-120" value="SI" style="text;html=1;align=center;verticalAlign=middle;whiteSpace=wrap;rounded=0;" parent="ZF7ugMqVSIhXpT3id4Wy-82" vertex="1">
          <mxGeometry x="210" y="127.5" width="30" height="25" as="geometry" />
        </mxCell>
        <mxCell id="ZF7ugMqVSIhXpT3id4Wy-103" value="IntSi" style="text;html=1;align=center;verticalAlign=middle;whiteSpace=wrap;rounded=0;" parent="1" vertex="1">
          <mxGeometry x="100" y="490" width="39" height="30" as="geometry" />
        </mxCell>
        <mxCell id="ZF7ugMqVSIhXpT3id4Wy-104" value="ExtSi" style="text;html=1;align=center;verticalAlign=middle;whiteSpace=wrap;rounded=0;" parent="1" vertex="1">
          <mxGeometry x="101" y="440" width="39" height="30" as="geometry" />
        </mxCell>
        <mxCell id="ZF7ugMqVSIhXpT3id4Wy-112" value="" style="group" parent="1" vertex="1" connectable="0">
          <mxGeometry x="180" y="640" width="120" height="85" as="geometry" />
        </mxCell>
        <mxCell id="ZF7ugMqVSIhXpT3id4Wy-109" value="&lt;font style=&quot;color: rgb(51, 51, 255);&quot;&gt;A0&lt;/font&gt;" style="text;html=1;align=center;verticalAlign=middle;whiteSpace=wrap;rounded=0;container=0;" parent="ZF7ugMqVSIhXpT3id4Wy-112" vertex="1">
          <mxGeometry y="10" width="30" height="20" as="geometry" />
        </mxCell>
        <mxCell id="ZF7ugMqVSIhXpT3id4Wy-106" value="" style="verticalLabelPosition=bottom;shadow=0;dashed=0;align=center;html=1;verticalAlign=top;shape=mxgraph.electrical.logic_gates.logic_gate;operation=or;container=0;" parent="ZF7ugMqVSIhXpT3id4Wy-112" vertex="1">
          <mxGeometry x="10" y="20" width="100" height="60" as="geometry" />
        </mxCell>
        <mxCell id="ZF7ugMqVSIhXpT3id4Wy-107" value="&lt;font style=&quot;color: rgb(255, 0, 0);&quot;&gt;I5&lt;/font&gt;" style="text;html=1;align=center;verticalAlign=middle;whiteSpace=wrap;rounded=0;container=0;" parent="ZF7ugMqVSIhXpT3id4Wy-112" vertex="1">
          <mxGeometry x="35" width="30" height="20" as="geometry" />
        </mxCell>
        <mxCell id="ZF7ugMqVSIhXpT3id4Wy-108" value="&lt;font style=&quot;color: rgb(51, 51, 255);&quot;&gt;A1&lt;/font&gt;" style="text;html=1;align=center;verticalAlign=middle;whiteSpace=wrap;rounded=0;container=0;" parent="ZF7ugMqVSIhXpT3id4Wy-112" vertex="1">
          <mxGeometry y="65" width="30" height="20" as="geometry" />
        </mxCell>
        <mxCell id="ZF7ugMqVSIhXpT3id4Wy-110" value="&lt;font style=&quot;color: rgb(51, 51, 255);&quot;&gt;Y&lt;/font&gt;" style="text;html=1;align=center;verticalAlign=middle;whiteSpace=wrap;rounded=0;container=0;" parent="ZF7ugMqVSIhXpT3id4Wy-112" vertex="1">
          <mxGeometry x="90" y="30" width="30" height="20" as="geometry" />
        </mxCell>
        <mxCell id="ZF7ugMqVSIhXpT3id4Wy-113" value="ExtSe" style="text;html=1;align=center;verticalAlign=middle;whiteSpace=wrap;rounded=0;" parent="1" vertex="1">
          <mxGeometry x="100" y="690" width="39" height="30" as="geometry" />
        </mxCell>
        <mxCell id="ZF7ugMqVSIhXpT3id4Wy-114" value="se" style="text;html=1;align=center;verticalAlign=middle;whiteSpace=wrap;rounded=0;" parent="1" vertex="1">
          <mxGeometry x="120" y="653.89" width="20" height="30" as="geometry" />
        </mxCell>
        <mxCell id="ZF7ugMqVSIhXpT3id4Wy-116" value="" style="rounded=0;whiteSpace=wrap;html=1;" parent="1" vertex="1">
          <mxGeometry x="450" y="400" width="120" height="350" as="geometry" />
        </mxCell>
        <mxCell id="ZF7ugMqVSIhXpT3id4Wy-117" value="&lt;font style=&quot;font-size: 18px;&quot;&gt;原Scan Cell&lt;/font&gt;" style="text;html=1;align=center;verticalAlign=middle;whiteSpace=wrap;rounded=0;" parent="1" vertex="1">
          <mxGeometry x="460" y="780" width="100" height="30" as="geometry" />
        </mxCell>
        <mxCell id="ZF7ugMqVSIhXpT3id4Wy-118" value="OSE" style="text;html=1;align=center;verticalAlign=middle;whiteSpace=wrap;rounded=0;" parent="1" vertex="1">
          <mxGeometry x="370" y="653.89" width="30" height="30" as="geometry" />
        </mxCell>
        <mxCell id="ZF7ugMqVSIhXpT3id4Wy-121" value="SE" style="text;html=1;align=center;verticalAlign=middle;whiteSpace=wrap;rounded=0;" parent="1" vertex="1">
          <mxGeometry x="420" y="666.1099999999999" width="30" height="23.89" as="geometry" />
        </mxCell>
        <mxCell id="ZF7ugMqVSIhXpT3id4Wy-131" value="" style="endArrow=none;html=1;rounded=0;entryX=0;entryY=0.25;entryDx=0;entryDy=0;entryPerimeter=0;exitX=0.002;exitY=0.779;exitDx=0;exitDy=0;exitPerimeter=0;" parent="1" source="ZF7ugMqVSIhXpT3id4Wy-128" target="ZF7ugMqVSIhXpT3id4Wy-106" edge="1">
          <mxGeometry width="50" height="50" relative="1" as="geometry">
            <mxPoint x="150" y="700" as="sourcePoint" />
            <mxPoint x="200" y="650" as="targetPoint" />
          </mxGeometry>
        </mxCell>
        <mxCell id="ZF7ugMqVSIhXpT3id4Wy-132" value="" style="endArrow=none;html=1;rounded=0;entryX=0;entryY=0.75;entryDx=0;entryDy=0;entryPerimeter=0;exitX=-0.003;exitY=0.871;exitDx=0;exitDy=0;exitPerimeter=0;" parent="1" source="ZF7ugMqVSIhXpT3id4Wy-128" target="ZF7ugMqVSIhXpT3id4Wy-106" edge="1">
          <mxGeometry width="50" height="50" relative="1" as="geometry">
            <mxPoint x="250" y="730" as="sourcePoint" />
            <mxPoint x="300" y="680" as="targetPoint" />
          </mxGeometry>
        </mxCell>
        <mxCell id="ZF7ugMqVSIhXpT3id4Wy-133" value="" style="endArrow=none;html=1;rounded=0;entryX=0;entryY=0.65;entryDx=0;entryDy=3;entryPerimeter=0;exitX=-0.003;exitY=0.304;exitDx=0;exitDy=0;exitPerimeter=0;" parent="1" source="ZF7ugMqVSIhXpT3id4Wy-128" target="ZF7ugMqVSIhXpT3id4Wy-76" edge="1">
          <mxGeometry width="50" height="50" relative="1" as="geometry">
            <mxPoint x="250" y="610" as="sourcePoint" />
            <mxPoint x="300" y="560" as="targetPoint" />
          </mxGeometry>
        </mxCell>
        <mxCell id="ZF7ugMqVSIhXpT3id4Wy-134" value="" style="endArrow=none;html=1;rounded=0;entryX=0;entryY=0.21666666666666667;entryDx=0;entryDy=3;entryPerimeter=0;exitX=0;exitY=0.148;exitDx=0;exitDy=0;exitPerimeter=0;" parent="1" source="ZF7ugMqVSIhXpT3id4Wy-128" target="ZF7ugMqVSIhXpT3id4Wy-76" edge="1">
          <mxGeometry width="50" height="50" relative="1" as="geometry">
            <mxPoint x="260" y="550" as="sourcePoint" />
            <mxPoint x="310" y="500" as="targetPoint" />
          </mxGeometry>
        </mxCell>
        <mxCell id="ZF7ugMqVSIhXpT3id4Wy-136" value="" style="endArrow=none;html=1;rounded=0;entryX=1;entryY=0.5;entryDx=0;entryDy=-5;entryPerimeter=0;exitX=1;exitY=0.223;exitDx=0;exitDy=0;exitPerimeter=0;" parent="1" source="ZF7ugMqVSIhXpT3id4Wy-128" target="ZF7ugMqVSIhXpT3id4Wy-76" edge="1">
          <mxGeometry width="50" height="50" relative="1" as="geometry">
            <mxPoint x="380" y="550" as="sourcePoint" />
            <mxPoint x="430" y="500" as="targetPoint" />
          </mxGeometry>
        </mxCell>
        <mxCell id="ZF7ugMqVSIhXpT3id4Wy-137" value="" style="endArrow=none;html=1;rounded=0;exitX=1;exitY=0.5;exitDx=0;exitDy=0;exitPerimeter=0;entryX=1.001;entryY=0.821;entryDx=0;entryDy=0;entryPerimeter=0;" parent="1" source="ZF7ugMqVSIhXpT3id4Wy-106" target="ZF7ugMqVSIhXpT3id4Wy-128" edge="1">
          <mxGeometry width="50" height="50" relative="1" as="geometry">
            <mxPoint x="380" y="720" as="sourcePoint" />
            <mxPoint x="430" y="670" as="targetPoint" />
          </mxGeometry>
        </mxCell>
        <mxCell id="ZF7ugMqVSIhXpT3id4Wy-138" value="" style="endArrow=none;html=1;rounded=0;exitX=0.999;exitY=0.822;exitDx=0;exitDy=0;exitPerimeter=0;entryX=-0.005;entryY=0.831;entryDx=0;entryDy=0;entryPerimeter=0;" parent="1" source="ZF7ugMqVSIhXpT3id4Wy-128" target="ZF7ugMqVSIhXpT3id4Wy-116" edge="1">
          <mxGeometry width="50" height="50" relative="1" as="geometry">
            <mxPoint x="600" y="710" as="sourcePoint" />
            <mxPoint x="650" y="660" as="targetPoint" />
          </mxGeometry>
        </mxCell>
        <mxCell id="ZF7ugMqVSIhXpT3id4Wy-139" value="" style="endArrow=none;html=1;rounded=0;exitX=0.998;exitY=0.224;exitDx=0;exitDy=0;exitPerimeter=0;entryX=0.001;entryY=0.245;entryDx=0;entryDy=0;entryPerimeter=0;" parent="1" source="ZF7ugMqVSIhXpT3id4Wy-128" target="ZF7ugMqVSIhXpT3id4Wy-116" edge="1">
          <mxGeometry width="50" height="50" relative="1" as="geometry">
            <mxPoint x="590" y="560" as="sourcePoint" />
            <mxPoint x="640" y="510" as="targetPoint" />
          </mxGeometry>
        </mxCell>
        <mxCell id="xG-g7r-yx12NaaFeA4UE-13" value="TM" style="text;html=1;align=center;verticalAlign=middle;whiteSpace=wrap;rounded=0;" vertex="1" parent="1">
          <mxGeometry x="109" y="520" width="31" height="30" as="geometry" />
        </mxCell>
        <mxCell id="xG-g7r-yx12NaaFeA4UE-14" value="" style="endArrow=none;html=1;rounded=0;entryX=0.375;entryY=1;entryDx=10;entryDy=0;entryPerimeter=0;exitX=0;exitY=0.426;exitDx=0;exitDy=0;exitPerimeter=0;" edge="1" parent="1" source="ZF7ugMqVSIhXpT3id4Wy-128" target="ZF7ugMqVSIhXpT3id4Wy-76">
          <mxGeometry width="50" height="50" relative="1" as="geometry">
            <mxPoint x="200" y="700" as="sourcePoint" />
            <mxPoint x="250" y="650" as="targetPoint" />
          </mxGeometry>
        </mxCell>
        <mxCell id="xG-g7r-yx12NaaFeA4UE-35" value="&lt;font style=&quot;font-size: 18px;&quot;&gt;Wrapper Mode Control Cell Model&lt;/font&gt;" style="text;html=1;align=center;verticalAlign=middle;whiteSpace=wrap;rounded=0;" vertex="1" parent="1">
          <mxGeometry x="-240" y="660" width="275.25" height="30" as="geometry" />
        </mxCell>
        <mxCell id="xG-g7r-yx12NaaFeA4UE-37" value="" style="group" vertex="1" connectable="0" parent="1">
          <mxGeometry x="-240" y="490" width="300" height="160" as="geometry" />
        </mxCell>
        <mxCell id="xG-g7r-yx12NaaFeA4UE-15" value="" style="rounded=0;whiteSpace=wrap;html=1;" vertex="1" parent="xG-g7r-yx12NaaFeA4UE-37">
          <mxGeometry x="50" width="230" height="160" as="geometry" />
        </mxCell>
        <mxCell id="xG-g7r-yx12NaaFeA4UE-16" value="" style="group" vertex="1" connectable="0" parent="xG-g7r-yx12NaaFeA4UE-37">
          <mxGeometry x="50" y="70" width="89" height="45" as="geometry" />
        </mxCell>
        <mxCell id="xG-g7r-yx12NaaFeA4UE-17" value="&lt;font style=&quot;color: rgb(51, 51, 255);&quot;&gt;A&lt;/font&gt;" style="text;html=1;align=center;verticalAlign=middle;whiteSpace=wrap;rounded=0;" vertex="1" parent="xG-g7r-yx12NaaFeA4UE-16">
          <mxGeometry x="10" width="20" height="20" as="geometry" />
        </mxCell>
        <mxCell id="xG-g7r-yx12NaaFeA4UE-18" value="" style="verticalLabelPosition=bottom;shadow=0;dashed=0;align=center;html=1;verticalAlign=top;shape=mxgraph.electrical.logic_gates.inverter_2" vertex="1" parent="xG-g7r-yx12NaaFeA4UE-16">
          <mxGeometry x="20" width="60" height="38.57142857142858" as="geometry" />
        </mxCell>
        <mxCell id="xG-g7r-yx12NaaFeA4UE-19" value="&lt;font style=&quot;color: rgb(255, 0, 0);&quot;&gt;I1&lt;/font&gt;" style="text;html=1;align=center;verticalAlign=middle;whiteSpace=wrap;rounded=0;" vertex="1" parent="xG-g7r-yx12NaaFeA4UE-16">
          <mxGeometry x="41" y="32.14285714285711" width="18" height="12.857142857142858" as="geometry" />
        </mxCell>
        <mxCell id="xG-g7r-yx12NaaFeA4UE-20" value="&lt;font style=&quot;color: rgb(51, 51, 255);&quot;&gt;Y&lt;/font&gt;" style="text;html=1;align=center;verticalAlign=middle;whiteSpace=wrap;rounded=0;" vertex="1" parent="xG-g7r-yx12NaaFeA4UE-16">
          <mxGeometry x="59" width="21" height="20" as="geometry" />
        </mxCell>
        <mxCell id="xG-g7r-yx12NaaFeA4UE-21" value="" style="group" vertex="1" connectable="0" parent="xG-g7r-yx12NaaFeA4UE-37">
          <mxGeometry x="160" y="20" width="110" height="130" as="geometry" />
        </mxCell>
        <mxCell id="xG-g7r-yx12NaaFeA4UE-22" value="&lt;font style=&quot;color: rgb(51, 51, 255);&quot;&gt;Y&lt;/font&gt;" style="text;html=1;align=center;verticalAlign=middle;whiteSpace=wrap;rounded=0;" vertex="1" parent="xG-g7r-yx12NaaFeA4UE-21">
          <mxGeometry x="88" y="21.898395721925127" width="12.100000000000001" height="18.77005347593582" as="geometry" />
        </mxCell>
        <mxCell id="xG-g7r-yx12NaaFeA4UE-23" value="" style="group" vertex="1" connectable="0" parent="xG-g7r-yx12NaaFeA4UE-21">
          <mxGeometry width="110.00000000000001" height="129.99999999999997" as="geometry" />
        </mxCell>
        <mxCell id="xG-g7r-yx12NaaFeA4UE-24" value="&lt;font style=&quot;color: rgb(51, 51, 255);&quot;&gt;A0&lt;/font&gt;" style="text;html=1;align=center;verticalAlign=middle;whiteSpace=wrap;rounded=0;" vertex="1" parent="xG-g7r-yx12NaaFeA4UE-23">
          <mxGeometry x="5.5" width="15.400000000000002" height="25.026737967914432" as="geometry" />
        </mxCell>
        <mxCell id="xG-g7r-yx12NaaFeA4UE-25" value="" style="verticalLabelPosition=bottom;shadow=0;dashed=0;align=center;html=1;verticalAlign=top;shape=mxgraph.electrical.logic_gates.logic_gate;operation=and;" vertex="1" parent="xG-g7r-yx12NaaFeA4UE-23">
          <mxGeometry width="110.00000000000001" height="91.76470588235293" as="geometry" />
        </mxCell>
        <mxCell id="xG-g7r-yx12NaaFeA4UE-26" value="&lt;font style=&quot;color: rgb(255, 0, 0);&quot;&gt;I2&lt;/font&gt;" style="text;html=1;align=center;verticalAlign=middle;whiteSpace=wrap;rounded=0;" vertex="1" parent="xG-g7r-yx12NaaFeA4UE-23">
          <mxGeometry x="33" y="99.41176470588236" width="33" height="30.588235294117645" as="geometry" />
        </mxCell>
        <mxCell id="xG-g7r-yx12NaaFeA4UE-27" value="&lt;font style=&quot;color: rgb(51, 51, 255);&quot;&gt;A1&lt;/font&gt;" style="text;html=1;align=center;verticalAlign=middle;whiteSpace=wrap;rounded=0;" vertex="1" parent="xG-g7r-yx12NaaFeA4UE-23">
          <mxGeometry y="66.73379679144382" width="20.900000000000002" height="25.026737967914432" as="geometry" />
        </mxCell>
        <mxCell id="xG-g7r-yx12NaaFeA4UE-28" value="" style="endArrow=none;html=1;rounded=0;exitX=0.976;exitY=0.5;exitDx=0;exitDy=0;exitPerimeter=0;entryX=0;entryY=0.75;entryDx=0;entryDy=0;entryPerimeter=0;" edge="1" parent="xG-g7r-yx12NaaFeA4UE-37" source="xG-g7r-yx12NaaFeA4UE-18" target="xG-g7r-yx12NaaFeA4UE-25">
          <mxGeometry width="50" height="50" relative="1" as="geometry">
            <mxPoint x="200" y="120" as="sourcePoint" />
            <mxPoint x="250" y="70" as="targetPoint" />
          </mxGeometry>
        </mxCell>
        <mxCell id="xG-g7r-yx12NaaFeA4UE-29" value="IntMode" style="text;html=1;align=center;verticalAlign=middle;whiteSpace=wrap;rounded=0;" vertex="1" parent="xG-g7r-yx12NaaFeA4UE-37">
          <mxGeometry y="10" width="49" height="30" as="geometry" />
        </mxCell>
        <mxCell id="xG-g7r-yx12NaaFeA4UE-30" value="ExtMode" style="text;html=1;align=center;verticalAlign=middle;whiteSpace=wrap;rounded=0;" vertex="1" parent="xG-g7r-yx12NaaFeA4UE-37">
          <mxGeometry y="85" width="50" height="30" as="geometry" />
        </mxCell>
        <mxCell id="xG-g7r-yx12NaaFeA4UE-31" value="Q" style="text;html=1;align=center;verticalAlign=middle;whiteSpace=wrap;rounded=0;" vertex="1" parent="xG-g7r-yx12NaaFeA4UE-37">
          <mxGeometry x="280" y="40" width="20" height="30" as="geometry" />
        </mxCell>
        <mxCell id="xG-g7r-yx12NaaFeA4UE-32" value="" style="endArrow=none;html=1;rounded=0;entryX=0;entryY=0.25;entryDx=0;entryDy=0;entryPerimeter=0;exitX=0.001;exitY=0.262;exitDx=0;exitDy=0;exitPerimeter=0;" edge="1" parent="xG-g7r-yx12NaaFeA4UE-37" source="xG-g7r-yx12NaaFeA4UE-15" target="xG-g7r-yx12NaaFeA4UE-25">
          <mxGeometry width="50" height="50" relative="1" as="geometry">
            <mxPoint y="100" as="sourcePoint" />
            <mxPoint x="50" y="50" as="targetPoint" />
          </mxGeometry>
        </mxCell>
        <mxCell id="xG-g7r-yx12NaaFeA4UE-33" value="" style="endArrow=none;html=1;rounded=0;entryX=0;entryY=0.5;entryDx=0;entryDy=0;entryPerimeter=0;exitX=0.003;exitY=0.556;exitDx=0;exitDy=0;exitPerimeter=0;" edge="1" parent="xG-g7r-yx12NaaFeA4UE-37" source="xG-g7r-yx12NaaFeA4UE-15" target="xG-g7r-yx12NaaFeA4UE-18">
          <mxGeometry width="50" height="50" relative="1" as="geometry">
            <mxPoint y="100" as="sourcePoint" />
            <mxPoint x="50" y="50" as="targetPoint" />
          </mxGeometry>
        </mxCell>
        <mxCell id="xG-g7r-yx12NaaFeA4UE-34" value="" style="endArrow=none;html=1;rounded=0;exitX=1;exitY=0.5;exitDx=0;exitDy=0;exitPerimeter=0;entryX=0.999;entryY=0.414;entryDx=0;entryDy=0;entryPerimeter=0;" edge="1" parent="xG-g7r-yx12NaaFeA4UE-37" source="xG-g7r-yx12NaaFeA4UE-25" target="xG-g7r-yx12NaaFeA4UE-15">
          <mxGeometry width="50" height="50" relative="1" as="geometry">
            <mxPoint x="250" y="110" as="sourcePoint" />
            <mxPoint x="300" y="60" as="targetPoint" />
          </mxGeometry>
        </mxCell>
        <mxCell id="xG-g7r-yx12NaaFeA4UE-38" value="" style="endArrow=none;html=1;rounded=0;exitX=0.996;exitY=0.415;exitDx=0;exitDy=0;exitPerimeter=0;entryX=0;entryY=0.426;entryDx=0;entryDy=0;entryPerimeter=0;" edge="1" parent="1" source="xG-g7r-yx12NaaFeA4UE-15" target="ZF7ugMqVSIhXpT3id4Wy-128">
          <mxGeometry width="50" height="50" relative="1" as="geometry">
            <mxPoint x="210" y="590" as="sourcePoint" />
            <mxPoint x="260" y="540" as="targetPoint" />
          </mxGeometry>
        </mxCell>
      </root>
    </mxGraphModel>
  </diagram>
</mxfile>
